<svg width="579" height="36" viewBox="0 0 579 36" fill="none" xmlns="http://www.w3.org/2000/svg">
<circle cx="3.5" cy="9.5" r="2.25" stroke="#0705EC" stroke-width="1.5"/>
<line x1="7" y1="9" x2="572" y2="9" stroke="#C3C3C3" stroke-linecap="round"/>
<circle cx="575.5" cy="9.5" r="3" fill="#0705EC"/>
<path d="M296 7.78571H295.5L292.101 4.14339C291.913 3.94266 291.676 3.78061 291.405 3.66924C291.135 3.55787 290.839 3.50003 290.539 3.5H283.854C283.036 3.5 282.301 3.9267 281.997 4.57759L280.5 7.84625C279.639 8.0375 279 8.70205 279 9.5V12.5C279 12.7368 279.224 12.9286 279.5 12.9286H281C281 14.3488 282.343 15.5 284 15.5C285.657 15.5 287 14.3488 287 12.9286H291C291 14.3488 292.343 15.5 294 15.5C295.657 15.5 297 14.3488 297 12.9286H298.5C298.776 12.9286 299 12.7368 299 12.5V10.3571C299 8.93696 297.657 7.78571 296 7.78571ZM284 14.2143C283.173 14.2143 282.5 13.6376 282.5 12.9286C282.5 12.2196 283.173 11.6429 284 11.6429C284.827 11.6429 285.5 12.2196 285.5 12.9286C285.5 13.6376 284.827 14.2143 284 14.2143ZM286.25 7.78571H282.654L283.854 5.21429H286.25V7.78571ZM287.75 7.78571V5.21429H290.539L292.939 7.78571H287.75ZM294 14.2143C293.173 14.2143 292.5 13.6376 292.5 12.9286C292.5 12.2196 293.173 11.6429 294 11.6429C294.827 11.6429 295.5 12.2196 295.5 12.9286C295.5 13.6376 294.827 14.2143 294 14.2143Z" fill="#0705EC"/>
</svg>
