<svg width="20" height="20" viewBox="0 0 20 20" xmlns="http://www.w3.org/2000/svg">
<path fill-rule="evenodd" clip-rule="evenodd" d="M6.25002 3.95833C6.25002 3.77625 8.13168 2.5 10 2.5C11.8683 2.5 13.75 3.77625 13.75 3.95833C13.75 4.60833 13.6809 4.99333 13.6225 5.20292C13.5838 5.34042 13.455 5.41667 13.3121 5.41667H6.68793C6.54502 5.41667 6.41627 5.34042 6.37752 5.20292C6.31918 4.99333 6.25002 4.60833 6.25002 3.95833ZM9.37502 3.75C9.26451 3.75 9.15853 3.7939 9.08039 3.87204C9.00225 3.95018 8.95835 4.05616 8.95835 4.16667C8.95835 4.27717 9.00225 4.38315 9.08039 4.46129C9.15853 4.53943 9.26451 4.58333 9.37502 4.58333H10.625C10.7355 4.58333 10.8415 4.53943 10.9196 4.46129C10.9978 4.38315 11.0417 4.27717 11.0417 4.16667C11.0417 4.05616 10.9978 3.95018 10.9196 3.87204C10.8415 3.7939 10.7355 3.75 10.625 3.75H9.37502ZM6.68252 8.0075C5.29502 7.57833 5.64502 6.81167 6.17418 6.25H13.9417C14.365 6.79083 14.5921 7.52042 13.3125 7.95708C13.3648 8.42126 13.319 8.89124 13.178 9.33656C13.037 9.78188 12.8039 10.1926 12.494 10.5421C12.184 10.8915 11.8041 11.172 11.3788 11.3652C10.9535 11.5584 10.4924 11.66 10.0253 11.6635C9.55818 11.6671 9.09555 11.5724 8.6674 11.3856C8.23925 11.1988 7.85513 10.9242 7.53995 10.5794C7.22477 10.2347 6.98557 9.82752 6.83786 9.38438C6.69015 8.94124 6.63722 8.47199 6.68252 8.00708M9.88668 8.33292C10.9875 8.33292 11.8408 8.27458 12.495 8.17292C12.5165 8.51263 12.4684 8.85316 12.3537 9.17363C12.2389 9.4941 12.0599 9.78776 11.8277 10.0366C11.5954 10.2855 11.3148 10.4843 11.003 10.6208C10.6912 10.7574 10.3548 10.8288 10.0144 10.8308C9.67402 10.8328 9.33681 10.7652 9.02346 10.6322C8.71011 10.4993 8.42721 10.3037 8.19211 10.0576C7.95701 9.81139 7.77465 9.51981 7.65621 9.20069C7.53778 8.88156 7.48576 8.54161 7.50335 8.20167C8.11293 8.28583 8.89418 8.33292 9.88668 8.33292ZM13.5071 14.4167C13.1302 13.8287 12.6115 13.3449 11.9986 13.01C11.3857 12.675 10.6984 12.4997 10 12.5C9.30131 12.4995 8.61372 12.675 8.00061 13.0101C7.3875 13.3452 6.86859 13.8292 6.49168 14.4175C6.3518 14.2021 6.13697 14.0462 5.88877 13.98L5.08377 13.7646C4.81695 13.6931 4.53264 13.7304 4.29338 13.8685C4.05412 14.0066 3.8795 14.234 3.80793 14.5008L3.4846 15.7083C3.44919 15.8405 3.44015 15.9783 3.45801 16.1139C3.47587 16.2496 3.52027 16.3804 3.58867 16.4988C3.65708 16.6173 3.74815 16.7211 3.8567 16.8044C3.96524 16.8877 4.08912 16.9488 4.22127 16.9842L5.02585 17.2C5.16118 17.2365 5.3025 17.2451 5.44128 17.2255C5.58006 17.2059 5.71342 17.1584 5.83335 17.0858C5.83368 17.1963 5.8779 17.3022 5.95627 17.3801C6.03465 17.458 6.14076 17.5016 6.25127 17.5012C6.36177 17.5009 6.46762 17.4567 6.54553 17.3783C6.62343 17.3 6.66701 17.1938 6.66668 17.0833V16.6667C6.66668 16.5079 6.67793 16.3517 6.69918 16.1987L8.86752 16.78C8.96817 16.9954 9.12818 17.1777 9.32878 17.3054C9.52937 17.4331 9.76223 17.5009 10 17.5009C10.2378 17.5009 10.4707 17.4331 10.6713 17.3054C10.8719 17.1777 11.0319 16.9954 11.1325 16.78L13.3008 16.1987C13.3221 16.3517 13.3333 16.5079 13.3333 16.6667V17.0833C13.3328 17.1938 13.3762 17.3 13.4539 17.3786C13.5317 17.4571 13.6374 17.5015 13.7479 17.5021C13.8584 17.5026 13.9646 17.4593 14.0432 17.3815C14.1217 17.3038 14.1661 17.198 14.1667 17.0875C14.4 17.2275 14.6883 17.2762 14.9721 17.2L15.7771 16.9846C15.9092 16.9492 16.0331 16.8881 16.1417 16.8048C16.2502 16.7216 16.3413 16.6177 16.4097 16.4992C16.4781 16.3808 16.5225 16.25 16.5404 16.1144C16.5582 15.9787 16.5492 15.8409 16.5138 15.7087L16.19 14.5013C16.1184 14.2344 15.9438 14.007 15.7046 13.8689C15.4653 13.7308 15.181 13.6935 14.9142 13.765L14.1092 13.9804C13.8616 14.0464 13.6471 14.202 13.5071 14.4167ZM6.91793 15.3942C7.14307 14.8499 7.50827 14.3749 7.97642 14.0175C8.44457 13.6601 8.99899 13.4329 9.58335 13.3592V15.0712C9.39662 15.1375 9.22826 15.2471 9.09209 15.391C8.95592 15.5349 8.85582 15.7091 8.80002 15.8992L6.91793 15.3942ZM13.0821 15.3942C12.8569 14.8499 12.4917 14.375 12.0236 14.0175C11.5554 13.6601 11.001 13.433 10.4167 13.3592V15.0712C10.7933 15.2046 11.0875 15.5129 11.2 15.8992L13.0821 15.3942ZM10 16.6667C10.1105 16.6667 10.2165 16.6228 10.2946 16.5446C10.3728 16.4665 10.4167 16.3605 10.4167 16.25C10.4167 16.1395 10.3728 16.0335 10.2946 15.9554C10.2165 15.8772 10.1105 15.8333 10 15.8333C9.88951 15.8333 9.78353 15.8772 9.70539 15.9554C9.62725 16.0335 9.58335 16.1395 9.58335 16.25C9.58335 16.3605 9.62725 16.4665 9.70539 16.5446C9.78353 16.6228 9.88951 16.6667 10 16.6667Z"/>
</svg>
