<svg width="15" height="16" viewBox="0 0 15 16" fill="none" xmlns="http://www.w3.org/2000/svg">
<path d="M14.5313 3.00001C14.5312 2.55656 14.4053 2.12223 14.1682 1.74748C13.9311 1.37272 13.5926 1.07291 13.1919 0.882867C12.7912 0.692827 12.3449 0.620354 11.9047 0.673867C11.4645 0.72738 11.0485 0.904682 10.705 1.18518C10.3615 1.46568 10.1047 1.83786 9.9643 2.25851C9.82392 2.67915 9.80575 3.13099 9.9119 3.56155C10.0181 3.99211 10.2442 4.38371 10.564 4.69089C10.8838 4.99806 11.2843 5.2082 11.7188 5.29689V6.12501C11.7188 6.49797 11.5706 6.85566 11.3069 7.11938C11.0432 7.3831 10.6855 7.53126 10.3125 7.53126H4.68751C4.18022 7.53024 3.68647 7.69482 3.28126 8.00001V5.29689C3.85034 5.18072 4.35602 4.85739 4.70025 4.38958C5.04449 3.92177 5.20276 3.3428 5.14439 2.76492C5.08601 2.18705 4.81514 1.65143 4.3843 1.26192C3.95345 0.872402 3.39332 0.65674 2.81251 0.65674C2.23169 0.65674 1.67156 0.872402 1.24071 1.26192C0.809869 1.65143 0.539001 2.18705 0.480624 2.76492C0.422246 3.3428 0.580519 3.92177 0.924756 4.38958C1.26899 4.85739 1.77467 5.18072 2.34376 5.29689V10.7031C1.77467 10.8193 1.26899 11.1426 0.924756 11.6104C0.580519 12.0783 0.422246 12.6572 0.480624 13.2351C0.539001 13.813 0.809869 14.3486 1.24071 14.7381C1.67156 15.1276 2.23169 15.3433 2.81251 15.3433C3.39332 15.3433 3.95345 15.1276 4.3843 14.7381C4.81514 14.3486 5.08601 13.813 5.14439 13.2351C5.20276 12.6572 5.04449 12.0783 4.70025 11.6104C4.35602 11.1426 3.85034 10.8193 3.28126 10.7031V9.87501C3.28126 9.50205 3.42941 9.14437 3.69314 8.88064C3.95686 8.61692 4.31454 8.46876 4.68751 8.46876H10.3125C10.9341 8.46876 11.5302 8.22183 11.9698 7.78229C12.4093 7.34275 12.6563 6.74661 12.6563 6.12501V5.29689C13.1853 5.18815 13.6607 4.90031 14.0022 4.4819C14.3438 4.0635 14.5306 3.54012 14.5313 3.00001ZM1.40626 3.00001C1.40626 2.72188 1.48873 2.45 1.64325 2.21874C1.79777 1.98748 2.0174 1.80724 2.27436 1.70081C2.53132 1.59437 2.81407 1.56652 3.08685 1.62078C3.35964 1.67504 3.61021 1.80897 3.80687 2.00564C4.00354 2.20231 4.13747 2.45288 4.19173 2.72567C4.246 2.99845 4.21815 3.2812 4.11171 3.53816C4.00527 3.79512 3.82503 4.01474 3.59378 4.16927C3.36252 4.32379 3.09064 4.40626 2.81251 4.40626C2.43954 4.40626 2.08186 4.2581 1.81814 3.99438C1.55441 3.73066 1.40626 3.37297 1.40626 3.00001ZM4.21876 13C4.21876 13.2781 4.13628 13.55 3.98176 13.7813C3.82724 14.0125 3.60761 14.1928 3.35065 14.2992C3.09369 14.4057 2.81095 14.4335 2.53816 14.3792C2.26537 14.325 2.0148 14.191 1.81814 13.9944C1.62147 13.7977 1.48754 13.5471 1.43328 13.2744C1.37902 13.0016 1.40686 12.7188 1.5133 12.4619C1.61974 12.2049 1.79998 11.9853 2.03123 11.8308C2.26249 11.6762 2.53438 11.5938 2.81251 11.5938C3.18547 11.5938 3.54315 11.7419 3.80687 12.0056C4.0706 12.2694 4.21876 12.6271 4.21876 13ZM12.1875 4.40626C11.9094 4.40626 11.6375 4.32379 11.4062 4.16927C11.175 4.01474 10.9947 3.79512 10.8883 3.53816C10.7819 3.2812 10.754 2.99845 10.8083 2.72567C10.8625 2.45288 10.9965 2.20231 11.1931 2.00564C11.3898 1.80897 11.6404 1.67504 11.9132 1.62078C12.1859 1.56652 12.4687 1.59437 12.7257 1.70081C12.9826 1.80724 13.2022 1.98748 13.3568 2.21874C13.5113 2.45 13.5938 2.72188 13.5938 3.00001C13.5938 3.37297 13.4456 3.73066 13.1819 3.99438C12.9182 4.2581 12.5605 4.40626 12.1875 4.40626Z"/>
</svg>
