<svg width="14" height="16" viewBox="0 0 14 16" fill="none" xmlns="http://www.w3.org/2000/svg">
<path fill-rule="evenodd" clip-rule="evenodd" d="M3.24989 1.95833C3.24989 1.77625 5.13156 0.5 6.99989 0.5C8.86823 0.5 10.7499 1.77625 10.7499 1.95833C10.7499 2.60833 10.6807 2.99333 10.6224 3.20292C10.5836 3.34042 10.4549 3.41667 10.312 3.41667H3.68781C3.54489 3.41667 3.41614 3.34042 3.37739 3.20292C3.31906 2.99333 3.24989 2.60833 3.24989 1.95833ZM6.37489 1.75C6.26439 1.75 6.15841 1.7939 6.08027 1.87204C6.00213 1.95018 5.95823 2.05616 5.95823 2.16667C5.95823 2.27717 6.00213 2.38315 6.08027 2.46129C6.15841 2.53943 6.26439 2.58333 6.37489 2.58333H7.62489C7.7354 2.58333 7.84138 2.53943 7.91952 2.46129C7.99766 2.38315 8.04156 2.27717 8.04156 2.16667C8.04156 2.05616 7.99766 1.95018 7.91952 1.87204C7.84138 1.7939 7.7354 1.75 7.62489 1.75H6.37489ZM3.68239 6.0075C2.29489 5.57833 2.64489 4.81167 3.17406 4.25H10.9416C11.3649 4.79083 11.592 5.52042 10.3124 5.95708C10.3647 6.42126 10.3189 6.89124 10.1778 7.33656C10.0368 7.78188 9.80379 8.1926 9.49385 8.54207C9.18391 8.89154 8.80398 9.17196 8.37869 9.36516C7.9534 9.55836 7.49226 9.66002 7.02516 9.66354C6.55806 9.66706 6.09543 9.57237 5.66728 9.38561C5.23913 9.19885 4.85501 8.92418 4.53983 8.57943C4.22465 8.23467 3.98545 7.82752 3.83774 7.38438C3.69003 6.94124 3.6371 6.47199 3.68239 6.00708M6.88656 6.33292C7.98739 6.33292 8.84073 6.27458 9.49489 6.17292C9.5164 6.51263 9.4683 6.85316 9.35355 7.17363C9.2388 7.4941 9.05981 7.78776 8.82756 8.03661C8.5953 8.28546 8.31468 8.48426 8.00288 8.62083C7.69108 8.75739 7.35468 8.82885 7.01429 8.83081C6.6739 8.83277 6.33669 8.76519 6.02334 8.63223C5.70999 8.49927 5.42709 8.30371 5.19199 8.05755C4.95688 7.81139 4.77453 7.51981 4.65609 7.20069C4.53765 6.88156 4.48564 6.54161 4.50323 6.20167C5.11281 6.28583 5.89406 6.33292 6.88656 6.33292ZM10.507 12.4167C10.1301 11.8287 9.61133 11.3449 8.99846 11.01C8.38559 10.675 7.69831 10.4997 6.99989 10.5C6.30118 10.4995 5.6136 10.675 5.00049 11.0101C4.38738 11.3452 3.86847 11.8292 3.49156 12.4175C3.35168 12.2021 3.13685 12.0462 2.88864 11.98L2.08364 11.7646C1.81683 11.6931 1.53252 11.7304 1.29326 11.8685C1.054 12.0066 0.879381 12.234 0.80781 12.5008L0.484476 13.7083C0.449065 13.8405 0.44003 13.9783 0.457887 14.1139C0.475744 14.2496 0.520144 14.3804 0.588551 14.4988C0.656958 14.6173 0.748033 14.7211 0.856574 14.8044C0.965114 14.8877 1.089 14.9488 1.22114 14.9842L2.02573 15.2C2.16106 15.2365 2.30238 15.2451 2.44115 15.2255C2.57993 15.2059 2.7133 15.1584 2.83323 15.0858C2.83356 15.1963 2.87777 15.3022 2.95615 15.3801C3.03452 15.458 3.14064 15.5016 3.25114 15.5012C3.36165 15.5009 3.4675 15.4567 3.54541 15.3783C3.62331 15.3 3.66689 15.1938 3.66656 15.0833V14.6667C3.66656 14.5079 3.67781 14.3517 3.69906 14.1987L5.86739 14.78C5.96804 14.9954 6.12806 15.1777 6.32865 15.3054C6.52925 15.4331 6.7621 15.5009 6.99989 15.5009C7.23768 15.5009 7.47054 15.4331 7.67113 15.3054C7.87173 15.1777 8.03174 14.9954 8.13239 14.78L10.3007 14.1987C10.322 14.3517 10.3332 14.5079 10.3332 14.6667V15.0833C10.3327 15.1938 10.376 15.3 10.4538 15.3786C10.5315 15.4571 10.6373 15.5015 10.7478 15.5021C10.8583 15.5026 10.9645 15.4593 11.043 15.3815C11.1216 15.3038 11.166 15.198 11.1666 15.0875C11.3999 15.2275 11.6882 15.2762 11.972 15.2L12.777 14.9846C12.9091 14.9492 13.033 14.8881 13.1415 14.8048C13.2501 14.7216 13.3412 14.6177 13.4096 14.4992C13.478 14.3808 13.5224 14.25 13.5402 14.1144C13.5581 13.9787 13.5491 13.8409 13.5136 13.7087L13.1899 12.5013C13.1183 12.2344 12.9437 12.007 12.7044 11.8689C12.4652 11.7308 12.1809 11.6935 11.9141 11.765L11.1091 11.9804C10.8614 12.0464 10.647 12.202 10.507 12.4167ZM3.91781 13.3942C4.14295 12.8499 4.50814 12.3749 4.97629 12.0175C5.44445 11.6601 5.99887 11.4329 6.58323 11.3592V13.0712C6.3965 13.1375 6.22814 13.2471 6.09197 13.391C5.9558 13.5349 5.8557 13.7091 5.79989 13.8992L3.91781 13.3942ZM10.082 13.3942C9.8568 12.8499 9.4916 12.375 9.02345 12.0175C8.55531 11.6601 8.00091 11.433 7.41656 11.3592V13.0712C7.79323 13.2046 8.08739 13.5129 8.19989 13.8992L10.082 13.3942ZM6.99989 14.6667C7.1104 14.6667 7.21638 14.6228 7.29452 14.5446C7.37266 14.4665 7.41656 14.3605 7.41656 14.25C7.41656 14.1395 7.37266 14.0335 7.29452 13.9554C7.21638 13.8772 7.1104 13.8333 6.99989 13.8333C6.88939 13.8333 6.78341 13.8772 6.70527 13.9554C6.62713 14.0335 6.58323 14.1395 6.58323 14.25C6.58323 14.3605 6.62713 14.4665 6.70527 14.5446C6.78341 14.6228 6.88939 14.6667 6.99989 14.6667Z" />
</svg>
