<svg width="15" height="18" viewBox="0 0 15 18" fill="none" xmlns="http://www.w3.org/2000/svg">
<path d="M7.5 0.875C3.29453 0.875 0 2.79688 0 5.25V12.75C0 15.2031 3.29453 17.125 7.5 17.125C11.7055 17.125 15 15.2031 15 12.75V5.25C15 2.79688 11.7055 0.875 7.5 0.875ZM13.75 9C13.75 9.75156 13.1344 10.518 12.0617 11.1031C10.8539 11.7617 9.23359 12.125 7.5 12.125C5.76641 12.125 4.14609 11.7617 2.93828 11.1031C1.86563 10.518 1.25 9.75156 1.25 9V7.7C2.58281 8.87187 4.86172 9.625 7.5 9.625C10.1383 9.625 12.4172 8.86875 13.75 7.7V9ZM2.93828 3.14688C4.14609 2.48828 5.76641 2.125 7.5 2.125C9.23359 2.125 10.8539 2.48828 12.0617 3.14688C13.1344 3.73203 13.75 4.49844 13.75 5.25C13.75 6.00156 13.1344 6.76797 12.0617 7.35312C10.8539 8.01172 9.23359 8.375 7.5 8.375C5.76641 8.375 4.14609 8.01172 2.93828 7.35312C1.86563 6.76797 1.25 6.00156 1.25 5.25C1.25 4.49844 1.86563 3.73203 2.93828 3.14688ZM12.0617 14.8531C10.8539 15.5117 9.23359 15.875 7.5 15.875C5.76641 15.875 4.14609 15.5117 2.93828 14.8531C1.86563 14.268 1.25 13.5016 1.25 12.75V11.45C2.58281 12.6219 4.86172 13.375 7.5 13.375C10.1383 13.375 12.4172 12.6187 13.75 11.45V12.75C13.75 13.5016 13.1344 14.268 12.0617 14.8531Z"/>
</svg>
