<svg width="20" height="20" viewBox="0 0 20 20" fill="none" xmlns="http://www.w3.org/2000/svg">
<path d="M13.2422 3.86703C13.2422 3.25765 13.0704 2.66061 12.7466 2.14438C12.4228 1.62815 11.96 1.21362 11.4114 0.948341C10.8628 0.683059 10.2505 0.577758 9.64483 0.644515C9.03911 0.711271 8.46447 0.947382 7.9868 1.32577C7.50913 1.70416 7.14777 2.20951 6.94415 2.78387C6.74054 3.35823 6.70292 3.97835 6.8356 4.57311C6.96828 5.16788 7.26589 5.71321 7.69431 6.14657C8.12273 6.57993 8.66461 6.88379 9.25781 7.02328V18.1248L10 19.3748L10.7422 18.1248V7.02328C11.4527 6.8542 12.0857 6.45093 12.5392 5.87841C12.9926 5.30588 13.2403 4.5974 13.2422 3.86703ZM10.9375 3.63266C10.7753 3.63266 10.6167 3.58455 10.4818 3.49441C10.3469 3.40427 10.2417 3.27616 10.1796 3.12627C10.1175 2.97637 10.1013 2.81144 10.1329 2.65231C10.1646 2.49319 10.2427 2.34702 10.3575 2.2323C10.4722 2.11758 10.6183 2.03945 10.7775 2.0078C10.9366 1.97614 11.1015 1.99239 11.2514 2.05448C11.4013 2.11656 11.5294 2.22171 11.6196 2.35661C11.7097 2.49151 11.7578 2.6501 11.7578 2.81235C11.7578 3.02991 11.6714 3.23856 11.5175 3.3924C11.3637 3.54623 11.1551 3.63266 10.9375 3.63266Z"/>
</svg>
