<svg width="20" height="20" viewBox="0 0 20 20" fill="none" xmlns="http://www.w3.org/2000/svg">
<path d="M7.50008 17.0835C6.69008 17.0835 6.00147 16.7999 5.43425 16.2327C4.86703 15.6655 4.58341 14.9768 4.58341 14.1668V7.06602C4.0973 6.88546 3.69814 6.61018 3.38591 6.24018C3.07314 5.86907 2.91675 5.4574 2.91675 5.00518C2.91675 4.42463 3.11925 3.93129 3.52425 3.52518C3.92869 3.11907 4.42008 2.91602 4.99841 2.91602C5.57619 2.91602 6.06814 3.11907 6.47425 3.52518C6.88036 3.93129 7.08341 4.42463 7.08341 5.00518C7.08341 5.4574 6.9273 5.86852 6.61508 6.23852C6.3023 6.60907 5.90286 6.88463 5.41675 7.06518V14.1668C5.41675 14.7396 5.62091 15.2302 6.02925 15.6385C6.43758 16.0468 6.92897 16.2507 7.50341 16.2502C8.0773 16.2502 8.5673 16.0463 8.97341 15.6385C9.38008 15.2302 9.58341 14.7396 9.58341 14.1668V5.83352C9.58341 5.02352 9.86703 4.3349 10.4342 3.76768C11.0015 3.20046 11.6901 2.91685 12.5001 2.91685C13.3101 2.91685 13.9987 3.20046 14.5659 3.76768C15.1331 4.3349 15.4167 5.02352 15.4167 5.83352V12.9343C15.9029 13.1149 16.3023 13.3902 16.6151 13.7602C16.9273 14.1307 17.0834 14.5421 17.0834 14.9943C17.0834 15.5749 16.8812 16.0682 16.4767 16.4743C16.0717 16.8805 15.5801 17.0835 15.0017 17.0835C14.424 17.0835 13.932 16.8805 13.5259 16.4743C13.1198 16.0682 12.9167 15.5749 12.9167 14.9943C12.9167 14.5421 13.0731 14.1274 13.3859 13.7502C13.6981 13.373 14.0973 13.101 14.5834 12.9343V5.83352C14.5834 5.26074 14.3792 4.77018 13.9709 4.36185C13.5626 3.95352 13.0712 3.74963 12.4967 3.75018C11.9229 3.75018 11.4329 3.95407 11.0267 4.36185C10.6201 4.77074 10.4167 5.26129 10.4167 5.83352V14.1668C10.4167 14.9768 10.1331 15.6655 9.56591 16.2327C8.99869 16.7999 8.31008 17.0835 7.50008 17.0835Z" />
</svg>
