<svg width="20" height="20" viewBox="0 0 20 20" fill="none" xmlns="http://www.w3.org/2000/svg">
<path d="M4.16659 16.9233C4.04825 16.9233 3.94909 16.8833 3.86909 16.8033C3.78964 16.7233 3.74992 16.6245 3.74992 16.5067V14.1025C3.74992 13.7325 3.88186 13.4158 4.14575 13.1525C4.40909 12.8886 4.72575 12.7567 5.09575 12.7567H14.9041C15.2741 12.7567 15.5908 12.8883 15.8541 13.1517C16.118 13.4156 16.2499 13.7325 16.2499 14.1025V16.5067C16.2499 16.6245 16.2099 16.7233 16.1299 16.8033C16.0499 16.8833 15.9508 16.9233 15.8324 16.9233C15.7141 16.9233 15.6152 16.8833 15.5358 16.8033C15.4563 16.7233 15.4166 16.6245 15.4166 16.5067V14.1025C15.4166 13.9525 15.3685 13.8297 15.2724 13.7342C15.1763 13.6386 15.0535 13.5906 14.9041 13.59H5.09575C4.94631 13.59 4.82353 13.6381 4.72742 13.7342C4.63131 13.8303 4.58325 13.9531 4.58325 14.1025V16.5067C4.58325 16.6245 4.54325 16.7233 4.46325 16.8033C4.38325 16.8833 4.28492 16.9233 4.16659 16.9233ZM4.16825 11.3783C3.9377 11.3783 3.74075 11.2975 3.57742 11.1358C3.41464 10.9742 3.33325 10.7778 3.33325 10.5467C3.33325 10.3156 3.41409 10.1186 3.57575 9.95584C3.73742 9.79306 3.93381 9.71167 4.16492 9.71167C4.39547 9.71167 4.59242 9.79223 4.75575 9.95334C4.91853 10.1156 4.99992 10.3122 4.99992 10.5433C4.99992 10.7739 4.91909 10.9708 4.75742 11.1342C4.59575 11.297 4.39936 11.3783 4.16825 11.3783ZM6.47409 11.2817V4.51917C6.47409 4.14917 6.60603 3.83251 6.86992 3.56917C7.13325 3.30528 7.44992 3.17334 7.81992 3.17334H12.1791C12.5496 3.17334 12.8666 3.30501 13.1299 3.56834C13.3938 3.83223 13.5258 4.14917 13.5258 4.51917V11.2817H6.47409ZM15.8349 11.3783C15.6044 11.3783 15.4074 11.2975 15.2441 11.1358C15.0813 10.9742 14.9999 10.7778 14.9999 10.5467C14.9999 10.3156 15.0808 10.1186 15.2424 9.95584C15.4041 9.79306 15.6005 9.71167 15.8316 9.71167C16.0621 9.71167 16.2591 9.79223 16.4224 9.95334C16.5852 10.1156 16.6666 10.3122 16.6666 10.5433C16.6666 10.7739 16.5858 10.9708 16.4241 11.1342C16.2624 11.297 16.066 11.3783 15.8349 11.3783ZM7.30825 10.4483H12.6933V4.51917C12.6933 4.36917 12.6452 4.2464 12.5491 4.15084C12.453 4.05528 12.3299 4.00723 12.1799 4.00667H7.82158C7.67159 4.00667 7.54853 4.05473 7.45242 4.15084C7.35631 4.24695 7.30825 4.36973 7.30825 4.51917V10.4483Z"/>
</svg>
