<svg width="20" height="20" viewBox="0 0 20 20" fill="none" xmlns="http://www.w3.org/2000/svg">
<path d="M17.5 10V3.75C17.5 3.41848 17.3683 3.10054 17.1339 2.86612C16.8995 2.6317 16.5815 2.5 16.25 2.5H3.75C3.41848 2.5 3.10054 2.6317 2.86612 2.86612C2.6317 3.10054 2.5 3.41848 2.5 3.75V16.25C2.5 16.5815 2.6317 16.8995 2.86612 17.1339C3.10054 17.3683 3.41848 17.5 3.75 17.5H10" stroke="#8C8D89" stroke-width="1.66667" stroke-linecap="round" stroke-linejoin="round"/>
<path d="M13.3333 15.8335C14.714 15.8335 15.8333 14.7142 15.8333 13.3335C15.8333 11.9528 14.714 10.8335 13.3333 10.8335C11.9525 10.8335 10.8333 11.9528 10.8333 13.3335C10.8333 14.7142 11.9525 15.8335 13.3333 15.8335Z" stroke="#8C8D89" stroke-width="1.66667"/>
<path d="M15.4166 14.9998L17.4999 16.6665M5.83325 6.6665H14.1666M5.83325 9.99984H9.16659" stroke="#8C8D89" stroke-width="1.66667" stroke-linecap="round" stroke-linejoin="round"/>
</svg>
