<svg width="20" height="20" viewBox="0 0 20 20" xmlns="http://www.w3.org/2000/svg">
<path d="M10 3.33331C10.8841 3.33331 11.7319 3.6845 12.357 4.30962C12.9822 4.93474 13.3333 5.78259 13.3333 6.66665C13.3333 7.5507 12.9822 8.39855 12.357 9.02367C11.7319 9.64879 10.8841 9.99998 10 9.99998C9.11595 9.99998 8.26811 9.64879 7.64299 9.02367C7.01787 8.39855 6.66668 7.5507 6.66668 6.66665C6.66668 5.78259 7.01787 4.93474 7.64299 4.30962C8.26811 3.6845 9.11595 3.33331 10 3.33331ZM10 4.99998C9.55798 4.99998 9.13406 5.17557 8.8215 5.48813C8.50894 5.8007 8.33334 6.22462 8.33334 6.66665C8.33334 7.10867 8.50894 7.5326 8.8215 7.84516C9.13406 8.15772 9.55798 8.33331 10 8.33331C10.442 8.33331 10.866 8.15772 11.1785 7.84516C11.4911 7.5326 11.6667 7.10867 11.6667 6.66665C11.6667 6.22462 11.4911 5.8007 11.1785 5.48813C10.866 5.17557 10.442 4.99998 10 4.99998ZM10 10.8333C12.225 10.8333 16.6667 11.9416 16.6667 14.1666V16.6666H3.33334V14.1666C3.33334 11.9416 7.77501 10.8333 10 10.8333ZM10 12.4166C7.52501 12.4166 4.91668 13.6333 4.91668 14.1666V15.0833H15.0833V14.1666C15.0833 13.6333 12.475 12.4166 10 12.4166Z"/>
</svg>
